<svg version="1.2" xmlns="http://www.w3.org/2000/svg" viewBox="0 0 1602 404" width="1602" height="404">
	<title>kuyjf3vea2hg34taa-horizontal_default_slate_blue-svg</title>
	<style>
		.s0 { fill: #ffffff } 
	</style>
	<path id="Layer" fill-rule="evenodd" class="s0" d="m98.3 328.9l-1.3 1c-1.1 18-4 43.6-4 43.6h-11.7c0 0-2.9-25.7-4-43.6l-1.3-0.9c0 0-155.8-115.8-21.2-287.4 15.7-18.6 29.2-37.5 31.9-41.4 0.3-0.3 0.7-0.3 1 0 2.8 3.9 16.3 22.8 32 41.4 134.6 171.6-21.2 287.4-21.4 287.3zm-2.3-11.5v-0.3l-8.4-186.8c0-0.6-0.9-0.6-0.9 0l-8.4 186.8v0.3c1.9 3 8.9 9 8.9 9 0 0 6.9-6 8.8-9z"/>
	<path id="Layer" fill-rule="evenodd" class="s0" d="m443.6 129.3h49.2v10.7l-8.4 0.1c-5 0.2-9.1 4.3-9.1 9.4l0.5 159.5c0.1 5 4.2 9.2 9.2 9.2h7.8v10.5h-57.6v-10.5h5.2c5.1-0.1 9.2-4.2 9.2-9.3l-1-146.6-69.2 166.4c-1 2.5-3.3 4.1-5.9 4.1-2.7 0-5-1.6-6-4.1l-70.8-170.2v150.4c0 4.9 4.1 9 9.1 9.2l5.1 0.1v10.5h-49.2v-10.5l8.3-0.1c4.9-0.2 9-4.3 9-9.2l1.4-159.6c0-2.4-0.8-4.8-2.6-6.5-1.7-1.8-4-2.8-6.5-2.8h-8.2v-10.7h50.5l0.2 0.5 64.9 158.5zm393.7 188.3h5.8v10.6h-53.4v-10.6h5.9c2.6 0 4.8-0.9 6.4-2.5 1.6-1.6 2.5-3.8 2.5-6.5v-75.4c0-9.9-2.5-18.3-7.3-24.7-4.8-6.4-12.6-9.7-22.8-9.7-9 0-16.9 2.4-23.5 7.2-6.6 4.8-11.5 11.1-14.9 18.6-3.2 7.6-4.9 15.3-4.9 23.1v61.1c0 2.6 0.8 4.8 2.4 6.4 1.6 1.6 3.8 2.5 6.5 2.5h5.8v10.7h-53.4v-10.7h5.8c2.7 0 4.8-0.9 6.5-2.5 1.6-1.6 2.4-3.8 2.4-6.4v-92.3c0-3-0.8-5.2-2.4-6.7-1.7-1.5-4-2.2-6.8-2.2h-5.9v-7.3l23.2-13.3h9l5.4 20.9c0 0.4 0.3 0.7 0.7 0.7 0.5 0 0.9-0.1 1.1-0.4 11.5-16.7 28-25.2 48.8-25.2 14.9 0 26.9 4.3 35.5 12.6 8.8 8.4 13.1 20.1 13.1 35v78.3c0 2.7 0.9 4.9 2.5 6.5 1.8 1.6 3.8 2.4 6 2.2zm517.5-141.8c8.6 15 13.1 32.8 13.1 53.2 0 20.3-4.5 38.2-13.1 53.1-8.7 14.8-20.7 26.5-35.5 34.3-14.8 7.9-31.3 12-49.1 12h-69.4v-10.7h6.8c2.6 0 5-1.1 7.2-3.3 2.2-2.2 3.3-4.7 3.3-7.3v-156.6c0-2.6-1.1-5.1-3.3-7.3-2.3-2.3-4.6-3.3-7.2-3.3h-6.8v-10.6h69.4c17.8 0 34.3 4.1 49.1 11.9 14.8 8 26.6 19.5 35.5 34.6zm-24.6 5.7c-6.6-12.6-15.2-22.1-26-28.2-10.7-6.1-22.5-9.2-35.3-9.2h-14c-2.6 0-5.1 1.2-7.2 3.4-2.4 2.3-3.4 4.6-3.4 7.2v147.8c0 2.6 1.2 5.1 3.4 7.2 2.3 2.4 4.6 3.4 7.2 3.4h14c12.8 0 24.6-3.1 35.3-9.2 10.8-6.1 19.4-15.6 26-28.2 6.5-12.7 9.8-28.4 9.8-47 0-18.5-3.3-34.4-9.8-47.2zm213.6 90.4c0 11.9-3.2 22.3-9.6 30.7-6.3 8.5-15 14.9-26 19.2-10.9 4.4-23 6.6-36 6.6h-85.4v-10.7h6.9c2.6 0 5.1-1.1 7.3-3.3 2.2-2.2 3.3-4.7 3.3-7.3v-156.6c0-2.6-1.1-5.1-3.3-7.3-2.3-2.3-4.7-3.3-7.3-3.3h-6.3v-10.6h78.7c12.5 0 23.6 2.2 33.1 6.4 9.5 4.2 16.9 10.3 22.2 17.9 5.2 7.5 7.8 16.4 7.8 26.3 0 18.2-10.3 32.3-30.4 42.4 14.5 3.3 26.9 9.6 33.4 17 7.7 8.9 11.5 19.8 11.6 32.6zm-102.3 41.2h30c9.4 0 17.6-2 24.2-6 6.7-3.9 11.7-9 15-15.4 3.2-6.3 5-13.1 5-20.1q0-17.5-11.4-28.4-11.4-10.9-32.8-10.9h-40.6v70.3c0 2.6 1.2 5.1 3.4 7.3 2.3 2.2 4.6 3.2 7.2 3.2zm23.5-95.8c12 0 21-3.3 27-9.9 6-6.7 9.1-15.5 9.1-26.6 0-10.8-3.2-19.5-9.6-26.3-6.5-6.7-16.7-10.2-30.5-10.2h-19.3c-2.6 0-5.1 1.1-7.3 3.3-2.3 2.3-3.4 4.7-3.4 7.3v62.4zm-810.5 1.1c6.5 11.2 9.8 24.3 9.8 38.8 0 14.5-3.3 27.5-9.8 38.7-6.5 11.2-15.4 20-26.5 26.1-11 6.2-23.6 9.3-37.1 9.3-13.4 0-25.9-3.2-37-9.3-11.2-6.1-20-14.9-26.5-26.1-6.6-11.2-9.9-24.2-9.9-38.7 0-14.5 3.3-27.6 9.9-38.8 6.5-11.1 15.3-20 26.5-26.1 11-6.2 23.6-9.3 37-9.3 13.5 0 25.9 3.2 37.1 9.3 11.1 6.1 20 15 26.5 26.1zm-28.8-4c-8.6-10.5-20.3-15.8-34.8-15.8-14.5 0-26.2 5.3-34.7 15.8-8.7 10.4-13.1 24.9-13.1 42.8 0 17.8 4.4 32.3 13.1 42.7 8.5 10.5 20.2 15.9 34.7 15.9 14.5 0 26.2-5.4 34.8-15.9 8.7-10.4 13-24.9 13-42.7 0-17.9-4.3-32.4-13-42.8zm542 4c6.5 11.2 9.8 24.3 9.8 38.8 0 14.5-3.3 27.5-9.8 38.7-6.6 11.2-15.4 20-26.5 26.1-11.1 6.2-23.6 9.3-37.1 9.3-13.5 0-25.9-3.2-37.1-9.3-11.1-6.1-20-14.9-26.5-26.1-6.5-11.2-9.8-24.2-9.8-38.7 0-14.5 3.3-27.6 9.8-38.8 6.5-11.1 15.4-20 26.5-26.1 11-6.2 23.6-9.3 37.1-9.3 13.5 0 25.9 3.2 37.1 9.3 11 6.1 19.9 15 26.5 26.1zm-28.9-4c-8.5-10.5-20.2-15.8-34.7-15.8-14.5 0-26.2 5.3-34.8 15.8-8.7 10.4-13 24.8-13 42.8 0 17.8 4.3 32.3 13 42.7 8.6 10.5 20.3 15.9 34.8 15.9 14.5 0 26.2-5.4 34.7-15.9 8.7-10.4 13.1-24.9 13.1-42.7 0-17.9-4.5-32.4-13.1-42.8zm-180.1-27.4h50.2v14.4l-31.4-3.5c0 0-0.1 0-0.1 0.2 14.3 10 19.5 29.7 19.5 40.5 0 10-2.8 19.5-8.3 27.9-5.5 8.6-13.3 15.3-22.9 20.3-9.6 4.9-20.7 7.4-33 7.4-4.3 0-8.3-0.3-11.8-1-3.3-0.7-7.1-1.9-11.2-3.8l-15.2 20.4c-0.1 0.2 0 0.4 0 0.4 0 0 0.2 0.2 0.3 0.2h58.4c17 0 30.7 3.6 39.5 10.5 10.2 8.1 14.6 16.6 14.6 28.5 0 11.4-3.7 21.3-10.8 29.5-7 8.1-16.5 14.4-28.2 18.6-11.5 4.3-24.2 6.4-37.5 6.4-19.1 0-34.2-3.9-45-11.6-10.9-7.7-16.5-18.1-16.5-30.6 0-6.7 1.9-13.3 5.7-19.5 3.2-5.6 7.9-10.2 13.7-14.2h-6c-4.3 0-8.1-2.3-10.2-6.2-1.9-3.8-1.6-8.5 1-12l20.9-28.3c-7-4.9-12.5-10.9-16.6-18-4.3-7.5-6.3-15.8-6.3-24.8 0-10 2.8-19.5 8.2-28 5.4-8.6 12.9-15.3 22.6-20.2q14.4-7.5 31.9-7.5c8.5 0 16.6 1.5 24.5 4zm6.7 73.9c3.7-5.9 5.4-13.3 5.4-22.2 0-8.7-1.9-16.2-5.4-22.1-3.6-6-8.2-10.5-13.7-13.4-5.5-3.1-11.4-4.6-17.5-4.6-9.8 0-18.4 3.5-25.7 10.4-7.3 6.8-10.9 16.9-10.9 29.7 0 12.8 3.6 22.9 10.9 29.7 7.3 6.9 15.9 10.4 25.7 10.4 6 0 12-1.6 17.5-4.5 5.5-3 10.2-7.5 13.7-13.4zm-66.5 78.8c-3.5 5.2-5.2 11.2-5.2 17.6 0 10.2 3.8 18.2 11.2 23.5 7.4 5.2 17.6 8 29.9 8 14 0 25.4-3.4 33.8-9.9 8.5-6.6 12.7-15.3 12.7-26 0-7.2-2.3-13.5-7-18.2-4.7-4.6-11.7-6.8-22.6-6.8h-39.5c-5.6 2.7-9.8 6.5-13.3 11.8zm674.5-13.8c-2.9-1.5-5-3.8-6.8-6.5-1.5-2.9-2.4-5.9-2.4-9.2 0-3.3 0.9-6.4 2.4-9.1 1.6-2.9 3.9-5.1 6.8-6.6 2.9-1.6 6.1-2.5 9.7-2.5 3.6 0 6.8 0.9 9.7 2.5 2.8 1.5 5 3.8 6.7 6.6 1.6 2.8 2.5 5.8 2.5 9.1 0 3.3-0.9 6.4-2.5 9.2-1.6 2.8-3.9 5-6.7 6.5-2.9 1.6-6.1 2.5-9.7 2.5-3.5 0-6.8-0.7-9.7-2.5zm17.8-2c2.4-1.3 4.2-3.3 5.6-5.5 1.3-2.5 2-5.2 2-8.2 0-3-0.7-5.7-2-8.1q-2-3.7-5.6-5.6c-2.5-1.3-5.1-2-8.1-2-3 0-5.6 0.7-8.1 2-2.4 1.3-4.2 3.3-5.6 5.6-1.3 2.4-2 5.1-2 8.1 0 3 0.7 5.7 2 8.2q1.9 3.6 5.6 5.5c2.5 1.3 5.1 2 8.1 2 3 0 5.8-0.7 8.1-2zm-15.9-5v-1.3l0.3-0.1h0.9c0.2 0 0.5-0.1 0.7-0.3 0.3-0.3 0.3-0.4 0.3-0.7v-13.3c0-0.3-0.2-0.6-0.3-0.7-0.3-0.3-0.5-0.3-0.7-0.3h-0.9l-0.3-0.1v-1.3l0.3-0.2h7.5c2.2 0 3.7 0.5 5 1.5 1.3 1 1.9 2.2 1.9 4 0 1.2-0.4 2.5-1.4 3.4-1 1-2.2 1.6-3.6 1.7l1.7 0.6 3.3 5.3c0.3 0.4 0.6 0.5 1 0.5h0.9l0.1 0.2v1.3l-0.1 0.1h-4.5l-0.3-0.1-4.6-7.8h-1.1v5.2c0 0.3 0.1 0.6 0.2 0.7 0.3 0.3 0.5 0.3 0.8 0.3h0.8l0.3 0.1v1.3l-0.3 0.2h-7.6zm7.3-9.5c1.2 0 2.2-0.3 2.8-1 0.6-0.5 1-1.5 1-2.7 0-1.1-0.3-2-0.9-2.7-0.5-0.7-1.4-1-2.4-1h-0.6c-0.3 0-0.6 0.1-0.7 0.3-0.3 0.3-0.3 0.4-0.3 0.7v6.4z"/>
</svg>